<svg width="48" height="49" viewBox="0 0 48 49" fill="none" xmlns="http://www.w3.org/2000/svg">
<path d="M5 8.22175C5 6.71837 6.24925 5.5 7.79062 5.5H40.2094C41.7507 5.5 43 6.71837 43 8.22175V40.7783C43 42.2816 41.7507 43.5 40.2094 43.5H7.79062C6.24925 43.5 5 42.2816 5 40.7783V8.22175ZM16.7396 37.3108V20.1514H11.0373V37.3108H16.7396ZM13.8896 17.8073C15.8775 17.8073 17.1149 16.4915 17.1149 14.8433C17.0792 13.1594 15.8799 11.8793 13.9276 11.8793C11.9754 11.8793 10.7 13.1617 10.7 14.8433C10.7 16.4915 11.9374 17.8073 13.8516 17.8073H13.8896ZM25.5461 37.3108V27.7276C25.5461 27.2146 25.5841 26.7016 25.7361 26.3359C26.147 25.3123 27.0851 24.2506 28.6621 24.2506C30.726 24.2506 31.5501 25.8229 31.5501 28.1314V37.3108H37.2525V27.4688C37.2525 22.1962 34.4405 19.7453 30.688 19.7453C27.6623 19.7453 26.3061 21.4078 25.5461 22.5786V22.638H25.5081C25.5207 22.6182 25.5334 22.5984 25.5461 22.5786V20.1514H19.8461C19.9174 21.7616 19.8461 37.3108 19.8461 37.3108H25.5461Z" fill="#25282B"/>
</svg>
